# xmcd CD database file
#
# Track frame offsets:
#	150
#	26705
#	52847
#
# Disc length: 1056 seconds
#
# Revision: 0
# Processed by: cddbd v1.5.1PL0 Copyright (c) Steve Scherf et al.
# Submitted via: CDex 1.51
#
DISCID=1b041e03
DTITLE=岡村孝子 - フォーエバー・ロマンス
DYEAR=1993
DGENRE=JPop
TTITLE0=フォーエバー・ロマンス
TTITLE1=MARIAGE
TTITLE2=フォーエバー・ロマンス(カラオケ)
EXTD=YEAR: 1993
EXTT0=
EXTT1=
EXTT2=
PLAYORDER=
